# xmcd
#
# Track frame offsets: 
#        150
#        18320
#        40262
#        69735
#
# Disc length: 4440 seconds
#
# Revision: 1
# Processed by: cddbd v1.5.1PL0 Copyright (c) Steve Scherf et al.
# Submitted via: ExactAudioCopy v0.95a4
#
DISCID=2e115604
DTITLE=Keyco - mercy
DYEAR=2003
DGENRE=JPop
TTITLE0=mercy
TTITLE1=Trippin' out with You
TTITLE2=mercy (instrumental)
TTITLE3=Data
EXTD=YEAR: 2004
EXTT0=
EXTT1=
EXTT2=
EXTT3=
PLAYORDER=
